<?xml version="1.0" encoding="UTF-8"?>
<svg id="Layer_2" data-name="Layer 2" xmlns="http://www.w3.org/2000/svg" xmlns:xlink="http://www.w3.org/1999/xlink" viewBox="0 0 66.44 107.12">
  <defs>
    <style>
      .cls-1 {
        fill: url(#linear-gradient);
      }

      .cls-2 {
        fill: #5346e1;
      }

      .cls-3 {
        fill: #7938e4;
      }

      .cls-4 {
        fill: #fff;
      }

      .cls-4, .cls-5 {
        opacity: .5;
      }

      .cls-5 {
        fill: #020236;
      }
    </style>
    <linearGradient id="linear-gradient" x1="5.92" y1="26.26" x2="60.54" y2="80.87" gradientUnits="userSpaceOnUse">
      <stop offset="0" stop-color="#9333ea"/>
      <stop offset="1" stop-color="#4f46e5"/>
    </linearGradient>
  </defs>
  <g id="Animation_Move_Layer_Lower" data-name="Animation Move Layer Lower">
    <g>
      <path class="cls-2" d="m42.23,76.45l8.85,8.85c-.94-.94-2.48-.94-3.42,0l-3.04,3.04c-.94.94-.94,2.48,0,3.42l-8.85-8.85c.94.94,2.48.94,3.42,0l3.04-3.04c.94-.94.94-2.48,0-3.42Z"/>
      <path class="cls-5" d="m42.23,76.45l8.85,8.85c-.94-.94-2.48-.94-3.42,0l-3.04,3.04c-.94.94-.94,2.48,0,3.42l-8.85-8.85c.94.94,2.48.94,3.42,0l3.04-3.04c.94-.94.94-2.48,0-3.42Z"/>
    </g>
  </g>
  <g id="Animation_Move_Layer_Upper" data-name="Animation Move Layer Upper">
    <g>
      <path class="cls-3" d="m21.82,15.36l8.85,8.85c-.94-.94-2.48-.94-3.42,0l-3.04,3.04c-.94.94-.94,2.48,0,3.42l-8.85-8.85c.94.94,2.48.94,3.42,0l3.04-3.04c.94-.94.94-2.48,0-3.42Z"/>
      <path class="cls-5" d="m21.82,15.36l8.85,8.85c-.94-.94-2.48-.94-3.42,0l-3.04,3.04c-.94.94-.94,2.48,0,3.42l-8.85-8.85c.94.94,2.48.94,3.42,0l3.04-3.04c.94-.94.94-2.48,0-3.42Z"/>
    </g>
  </g>
  <g id="Animation_Base_Layer" data-name="Animation Base Layer">
    <g>
      <path class="cls-4" d="m15.16,44.72l-.13.13s.04-.05.06-.07.04-.04.07-.06Z"/>
      <path class="cls-1" d="m65.73,75.68l-10.44,10.44c-.95.95-2.49.95-3.43,0l-10.45-10.44c-.95-.95-.95-2.49,0-3.43l1.11-1.11c.64-.95.55-2.25-.29-3.08l-3.05-3.05c-.84-.84-2.16-.93-3.1-.27l-1.09,1.09c-.95.95-2.49.95-3.43,0l-10.44-10.44c-.16-.16-.29-.34-.41-.53,0-.01-.02-.04-.03-.06-.62-.94-.5-2.21.32-3.03l1.11-1.11c.64-.95.55-2.25-.29-3.08l-3.05-3.05c-.84-.84-2.16-.93-3.1-.27l-1.09,1.09c-.95.95-2.49.95-3.43,0L.71,34.9c-.95-.95-.95-2.49,0-3.43l10.44-10.44c.95-.95,2.48-.95,3.43,0l10.44,10.44c.95.95.95,2.49,0,3.43l-1.09,1.09c-.66.95-.57,2.26.27,3.1l3.05,3.05c.84.84,2.16.93,3.1.27l1.09-1.09c.95-.95,2.48-.95,3.43,0l10.44,10.44c.18.18.32.36.42.57.01.02.02.04.03.05.59.94.48,2.19-.34,3l-1.09,1.09c-.66.95-.57,2.26.27,3.1l3.05,3.05c.84.84,2.16.93,3.1.27l1.09-1.09c.95-.95,2.48-.95,3.43,0l10.44,10.44c.95.95.95,2.49,0,3.43Zm0-44.23l-10.44-10.44c-.95-.95-2.49-.95-3.43,0l-1.09,1.09c-.95.66-2.26.57-3.1-.27l-3.05-3.05c-.84-.84-.93-2.16-.27-3.1l1.09-1.09c.95-.95.95-2.49,0-3.43L34.99.71c-.95-.95-2.49-.95-3.43,0l-10.44,10.44c-.95.95-.95,2.49,0,3.43l10.44,10.44c.95.95,2.48.95,3.43,0l1.09-1.09c.95-.66,2.26-.57,3.1.27l3.05,3.05c.83.83.93,2.14.29,3.08l-1.11,1.11c-.95.95-.95,2.49,0,3.43l10.45,10.44c.95.95,2.48.95,3.43,0l10.44-10.44c.95-.95.95-2.49,0-3.43Zm-20.4,61.09l-10.44-10.44c-.95-.95-2.49-.95-3.43,0l-1.09,1.09c-.95.66-2.26.57-3.1-.27l-3.05-3.05c-.84-.84-.93-2.16-.27-3.1l1.09-1.09c.95-.95.95-2.49,0-3.43l-10.44-10.44c-.95-.95-2.49-.95-3.43,0L.72,72.24c-.95.95-.95,2.49,0,3.43l10.44,10.44c.95.95,2.48.95,3.43,0l1.09-1.09c.95-.66,2.26-.57,3.1.27l3.05,3.05c.83.83.93,2.14.29,3.08l-1.11,1.11c-.95.95-.95,2.49,0,3.43l10.45,10.44c.95.95,2.48.95,3.43,0l10.44-10.44c.95-.95.95-2.49,0-3.43Z"/>
      <path class="cls-5" d="m51.1,21.82l-8.87,8.87c.95-.95.95-2.49,0-3.43l-3.05-3.05c-.95-.95-2.49-.95-3.43,0l8.87-8.87c-.95.95-.95,2.49,0,3.43l3.05,3.05c.95.95,2.49.95,3.43,0Z"/>
      <path class="cls-5" d="m30.69,42.13l-8.87,8.87c.95-.95.95-2.49,0-3.43l-3.05-3.05c-.95-.95-2.49-.95-3.43,0l8.87-8.87c-.95.95-.95,2.49,0,3.43l3.05,3.05c.95.95,2.49.95,3.43,0Z"/>
      <path class="cls-5" d="m51.1,62.62l-8.87,8.87c.95-.95.95-2.49,0-3.43l-3.05-3.05c-.95-.95-2.49-.95-3.43,0l8.87-8.87c-.95.95-.95,2.49,0,3.43l3.05,3.05c.95.95,2.49.95,3.43,0Z"/>
      <path class="cls-5" d="m30.69,82.91l-8.87,8.87c.95-.95.95-2.49,0-3.43l-3.05-3.05c-.95-.95-2.49-.95-3.43,0l8.87-8.87c-.95.95-.95,2.49,0,3.43l3.05,3.05c.95.95,2.49.95,3.43,0Z"/>
    </g>
  </g>
</svg>