<svg width="189" height="37" viewBox="0 0 189 37" fill="none" xmlns="http://www.w3.org/2000/svg">
<g clip-path="url(#clip0_1927_16)">
<path d="M43.0659 15.4712H46.0819V27.6752H51.2039V30.5382H43.0659V15.4712ZM64.3269 24.6822C64.3245 25.891 63.9647 27.0721 63.2929 28.077C62.6212 29.0819 61.6673 29.8659 60.5513 30.3302C59.4353 30.7946 58.2069 30.9188 57.0205 30.687C55.8341 30.4553 54.7428 29.878 53.8835 29.0278C53.0243 28.1775 52.4356 27.0923 52.1914 25.9084C51.9471 24.7246 52.0583 23.4949 52.5109 22.3741C52.9636 21.2532 53.7374 20.2912 54.7352 19.6089C55.733 18.9265 56.9102 18.5544 58.1189 18.5392C58.933 18.5234 59.742 18.671 60.4981 18.9733C61.2542 19.2756 61.9419 19.7265 62.5207 20.2992C63.0995 20.8719 63.5576 21.5549 63.8678 22.3077C64.178 23.0606 64.3342 23.868 64.3269 24.6822ZM55.0139 24.6822C55.0139 26.6632 56.2689 28.0722 58.1629 28.0722C58.6005 28.0802 59.0349 27.9973 59.4388 27.8288C59.8427 27.6602 60.2072 27.4097 60.5093 27.0931C60.8114 26.7764 61.0444 26.4005 61.1938 25.9892C61.3431 25.5778 61.4055 25.1399 61.3769 24.7032C61.3769 22.7232 60.0779 21.3132 58.1629 21.3132C57.7308 21.3142 57.3035 21.4037 56.9073 21.5763C56.5111 21.7488 56.1545 22.0007 55.8594 22.3164C55.5644 22.632 55.3371 23.0048 55.1917 23.4117C55.0463 23.8186 54.9858 24.251 55.0139 24.6822V24.6822ZM77.8699 24.6822C77.8677 25.8912 77.508 27.0726 76.8363 28.0778C76.1645 29.0831 75.2106 29.8673 74.0944 30.3319C72.9782 30.7965 71.7496 30.9208 70.5629 30.6891C69.3763 30.4574 68.2846 29.8802 67.4252 29.0298C66.5657 28.1795 65.9768 27.0941 65.7325 25.91C65.4881 24.7259 65.5993 23.496 66.0519 22.3749C66.5046 21.2538 67.2785 20.2916 68.2765 19.6091C69.2745 18.9266 70.452 18.5544 71.6609 18.5392C72.4751 18.5234 73.2841 18.671 74.0402 18.9733C74.7964 19.2756 75.4842 19.7264 76.0631 20.2991C76.6419 20.8718 77.1001 21.5548 77.4104 22.3077C77.7208 23.0605 77.877 23.8679 77.8699 24.6822ZM68.5569 24.6822C68.5569 26.6632 69.8119 28.0722 71.7059 28.0722C72.1434 28.0801 72.5777 27.9971 72.9815 27.8285C73.3853 27.6599 73.7496 27.4093 74.0516 27.0927C74.3536 26.776 74.5866 26.4002 74.7359 25.9889C74.8851 25.5776 74.9475 25.1398 74.9189 24.7032C74.9189 22.7222 73.6209 21.3132 71.7059 21.3132C71.2738 21.3142 70.8465 21.4037 70.4503 21.5763C70.0541 21.7488 69.6975 22.0007 69.4025 22.3164C69.1074 22.632 68.8801 23.0048 68.7347 23.4117C68.5893 23.8186 68.5288 24.251 68.5569 24.6822ZM82.6289 20.1242C83.1002 19.622 83.6697 19.2221 84.3021 18.9494C84.9345 18.6768 85.6162 18.5371 86.3049 18.5392C89.3209 18.5392 91.8309 21.0492 91.8309 24.7032C91.8309 28.2922 89.2109 30.8462 86.2389 30.8462C85.5633 30.8525 84.8937 30.7188 84.2724 30.4534C83.6511 30.188 83.0915 29.7967 82.6289 29.3042V34.8092H79.6999V18.8472H82.6289V20.1242ZM82.4959 24.6592C82.4959 26.7732 83.9059 28.1602 85.7109 28.1602C87.5379 28.1602 88.8809 26.6842 88.8809 24.6822C88.8809 22.7662 87.6479 21.2252 85.7109 21.2252C83.8399 21.2252 82.4959 22.6122 82.4959 24.6592ZM93.7049 15.0742H96.6329V20.0362C97.5569 19.1216 98.7907 18.5873 100.09 18.5392C102.291 18.5392 104.096 19.9692 104.096 22.8092V30.5372H101.168V25.0112C101.168 22.6342 100.882 21.2252 99.1649 21.2252C98.7637 21.2281 98.3701 21.3352 98.0227 21.5359C97.6752 21.7366 97.3859 22.0241 97.1829 22.3702C96.5889 23.2942 96.6329 24.3512 96.6329 25.5622V30.5372H93.7049V15.0742ZM118.057 24.6822C118.054 25.8911 117.695 27.0723 117.023 28.0775C116.351 29.0827 115.398 29.8671 114.282 30.3322C113.166 30.7962 111.937 30.92 110.751 30.6881C109.565 30.4561 108.473 29.8788 107.614 29.0287C106.755 28.1785 106.166 27.0934 105.922 25.9096C105.677 24.7259 105.788 23.4962 106.24 22.3752C106.692 21.2536 107.466 20.2908 108.464 19.6082C109.462 18.9256 110.64 18.5536 111.849 18.5392C112.663 18.5235 113.472 18.6713 114.228 18.9736C114.984 19.2759 115.672 19.7268 116.25 20.2995C116.829 20.8722 117.287 21.5551 117.598 22.3079C117.908 23.0607 118.064 23.868 118.057 24.6822V24.6822ZM108.744 24.6822C108.744 26.6632 109.999 28.0722 111.893 28.0722C112.33 28.0799 112.765 27.9968 113.168 27.8282C113.572 27.6595 113.937 27.409 114.239 27.0924C114.541 26.7758 114.774 26.4 114.923 25.9888C115.073 25.5776 115.135 25.1398 115.107 24.7032C115.107 22.7222 113.808 21.3132 111.893 21.3132C111.242 21.3143 110.607 21.5164 110.075 21.8919C109.544 22.2675 109.141 22.7981 108.922 23.4112C108.777 23.8182 108.716 24.2512 108.744 24.6812V24.6822ZM119.601 15.0742H122.529V30.5372H119.601V15.0742ZM135.585 28.2692C134.33 30.0532 132.679 30.8462 130.213 30.8462C129.398 30.8745 128.586 30.734 127.828 30.4337C127.069 30.1333 126.381 29.6796 125.807 29.1008C125.232 28.5221 124.783 27.8309 124.488 27.0705C124.193 26.3101 124.059 25.4971 124.093 24.6822C124.059 23.4661 124.397 22.2686 125.062 21.2496C125.727 20.2306 126.686 19.4385 127.813 18.9792C128.561 18.6746 129.363 18.525 130.17 18.5392C133.868 18.5392 136.378 21.1812 136.378 24.8792C136.378 25.1442 136.356 25.2752 136.356 25.5402H126.933C127.038 26.3218 127.434 27.0349 128.042 27.537C128.65 28.039 129.426 28.293 130.213 28.2482C130.751 28.2751 131.289 28.1869 131.79 27.9895C132.291 27.792 132.745 27.4899 133.12 27.1032L135.585 28.2692ZM133.428 23.2282C133.184 22.5817 132.748 22.0248 132.18 21.6314C131.612 21.2381 130.937 21.0271 130.246 21.0262C129.555 21.026 128.88 21.2367 128.311 21.6301C127.743 22.0236 127.308 22.5811 127.065 23.2282H133.428ZM144.11 15.4712H147.126V27.6752H152.248V30.5382H144.11V15.4712ZM162.311 29.3042C161.85 29.7983 161.29 30.1907 160.669 30.4562C160.047 30.7217 159.377 30.8545 158.701 30.8462C155.728 30.8462 153.131 28.2922 153.131 24.7032C153.131 21.0482 155.596 18.5392 158.634 18.5392C159.323 18.5374 160.005 18.6771 160.637 18.9497C161.27 19.2224 161.839 19.6222 162.311 20.1242V18.8482H165.239V30.5382H162.311V29.3042ZM156.08 24.6812C156.08 26.6842 157.402 28.1602 159.229 28.1602C161.035 28.1602 162.444 26.7952 162.444 24.6602C162.444 22.6122 161.079 21.2252 159.229 21.2252C157.292 21.2252 156.08 22.7662 156.08 24.6812ZM170.57 30.5372H167.642V15.0742H170.57V20.1242C171.041 19.622 171.611 19.2222 172.244 18.9495C172.876 18.6768 173.558 18.5372 174.247 18.5392C177.263 18.5392 179.772 21.0492 179.772 24.7032C179.772 28.2912 177.153 30.8462 174.18 30.8462C173.504 30.8525 172.835 30.7188 172.213 30.4534C171.592 30.188 171.032 29.7967 170.57 29.3042V30.5372ZM170.438 24.6592C170.438 26.7732 171.847 28.1592 173.652 28.1592C175.479 28.1592 176.823 26.6842 176.823 24.6812C176.823 22.7662 175.589 21.2252 173.652 21.2252C171.781 21.2252 170.438 22.6122 170.438 24.6592ZM183.958 25.4732C182.087 24.5272 181.14 23.3832 181.14 21.9072C181.14 20.0802 182.681 18.5392 184.927 18.5392C185.676 18.5362 186.415 18.71 187.085 19.0466C187.754 19.3832 188.335 19.873 188.779 20.4762L186.975 22.3032C186.469 21.6898 185.74 21.3022 184.949 21.2252C184.355 21.2252 183.892 21.4672 183.892 21.9292C183.892 22.3692 184.311 22.5682 184.949 22.8982L186.028 23.4482C187.965 24.4382 189 25.4522 189 27.1912C189 29.2822 187.349 30.8462 184.794 30.8462C184.001 30.8656 183.215 30.6936 182.502 30.3447C181.789 29.9959 181.171 29.4805 180.7 28.8422L182.505 26.8612C183.107 27.6214 183.986 28.1122 184.949 28.2262C185.675 28.2262 186.248 27.8072 186.248 27.2792C186.248 26.7722 185.764 26.3992 184.949 25.9792L183.958 25.4732Z" fill="#28115E"/>
<path d="M33.66 22.8713L28.912 14.6482H18.355L12.83 27.3503H6.91L4.323 22.8713L6.909 18.3932H9.904L7.354 24.3752L7.99 25.4772H10.955L15.444 14.9493V12.4002H23.36V8.65625H10.3V12.4002H11.7V14.1823L11.502 14.6473H4.748L0 22.8703L4.748 31.0942H15.445L20.829 18.3923H26.749L29.336 22.8703L27.224 26.5282L24.553 20.2642H22.318L21.407 22.4342L25.897 32.9672H3.691L3.206 34.1052L4.928 36.7123H28.732L30.454 34.1052L29.06 30.8372L33.66 22.8713Z" fill="url(#paint0_linear_1927_16)"/>
<path d="M14.48 1.88086L12.072 4.28786L14.48 6.69486L16.887 4.28786L14.48 1.88086Z" fill="url(#paint1_linear_1927_16)"/>
<path d="M19.8009 0.712891L18.0139 2.49989L19.8009 4.28689L21.5879 2.49989L19.8009 0.712891Z" fill="url(#paint2_linear_1927_16)"/>
</g>
<defs>
<linearGradient id="paint0_linear_1927_16" x1="27.194" y1="40.6293" x2="4.777" y2="8.01125" gradientUnits="userSpaceOnUse">
<stop stop-color="#7E12DD"/>
<stop offset="1" stop-color="#B530DD"/>
</linearGradient>
<linearGradient id="paint1_linear_1927_16" x1="204.429" y1="187.063" x2="83.486" y2="11.0799" gradientUnits="userSpaceOnUse">
<stop stop-color="#7E12DD"/>
<stop offset="1" stop-color="#B530DD"/>
</linearGradient>
<linearGradient id="paint2_linear_1927_16" x1="178.602" y1="125.921" x2="88.8339" y2="-4.70109" gradientUnits="userSpaceOnUse">
<stop stop-color="#7E12DD"/>
<stop offset="1" stop-color="#B530DD"/>
</linearGradient>
<clipPath id="clip0_1927_16">
<rect width="189" height="37" fill="white"/>
</clipPath>
</defs>
</svg>
